<svg data-v-423bf9ae="" xmlns="http://www.w3.org/2000/svg" viewBox="0 0 692.323460698362 60" class="font"><!----><!----><!----><g data-v-423bf9ae="" id="ccbd79e9-14a9-4617-bdae-b50281885bf7" fill="black" transform="matrix(5.163510814682382,0,0,5.163510814682382,-1.8072374318279003,-13.2185878669656)"><path d="M6.96 13.90L2.84 13.90L2.84 13.61L4.13 13.40L4.13 3.05L1.82 3.05L0.76 5.82L0.35 5.82L0.35 2.70L9.46 2.70L9.46 5.82L9.04 5.82L7.99 3.05L5.67 3.05L5.67 13.40L6.96 13.61L6.96 13.90ZM14.03 14.04L14.03 14.04Q13.02 14.04 12.19 13.57L12.19 13.57L12.19 13.57Q11.37 13.10 10.89 12.24L10.89 12.24L10.89 12.24Q10.40 11.38 10.40 10.28L10.40 10.28L10.40 10.28Q10.40 9.17 10.89 8.32L10.89 8.32L10.89 8.32Q11.37 7.46 12.19 6.99L12.19 6.99L12.19 6.99Q13.02 6.52 14.03 6.52L14.03 6.52L14.03 6.52Q15.04 6.52 15.86 6.99L15.86 6.99L15.86 6.99Q16.69 7.46 17.17 8.32L17.17 8.32L17.17 8.32Q17.65 9.17 17.65 10.28L17.65 10.28L17.65 10.28Q17.65 11.38 17.17 12.24L17.17 12.24L17.17 12.24Q16.69 13.10 15.86 13.57L15.86 13.57L15.86 13.57Q15.04 14.04 14.03 14.04L14.03 14.04ZM14.03 13.73L14.03 13.73Q15.06 13.73 15.59 12.98L15.59 12.98L15.59 12.98Q16.11 12.22 16.11 10.98L16.11 10.98L16.11 9.58L16.11 9.58Q16.11 8.33 15.59 7.58L15.59 7.58L15.59 7.58Q15.06 6.83 14.03 6.83L14.03 6.83L14.03 6.83Q12.99 6.83 12.47 7.58L12.47 7.58L12.47 7.58Q11.94 8.33 11.94 9.58L11.94 9.58L11.94 10.98L11.94 10.98Q11.94 12.22 12.47 12.98L12.47 12.98L12.47 12.98Q12.99 13.73 14.03 13.73L14.03 13.73ZM18.63 13.90L18.63 13.62L19.61 13.48L19.61 7.07L18.63 6.93L18.63 6.65L21.01 6.65L21.01 7.94L21.01 7.94Q21.52 7.28 22.16 6.90L22.16 6.90L22.16 6.90Q22.79 6.52 23.53 6.52L23.53 6.52L23.53 6.52Q24.39 6.52 24.93 6.90L24.93 6.90L24.93 6.90Q25.47 7.27 25.61 8.01L25.61 8.01L25.61 8.01Q26.11 7.32 26.75 6.92L26.75 6.92L26.75 6.92Q27.40 6.52 28.17 6.52L28.17 6.52L28.17 6.52Q29.16 6.52 29.71 7.02L29.71 7.02L29.71 7.02Q30.27 7.52 30.27 8.53L30.27 8.53L30.27 13.48L31.25 13.62L31.25 13.90L28.03 13.90L28.03 13.62L28.87 13.48L28.87 8.55L28.87 8.55Q28.87 7.81 28.60 7.42L28.60 7.42L28.60 7.42Q28.34 7.03 27.73 7.03L27.73 7.03L27.73 7.03Q27.16 7.03 26.62 7.42L26.62 7.42L26.62 7.42Q26.08 7.81 25.65 8.43L25.65 8.43L25.65 13.48L26.49 13.62L26.49 13.90L23.39 13.90L23.39 13.62L24.23 13.48L24.23 8.55L24.23 8.55Q24.23 7.81 23.97 7.42L23.97 7.42L23.97 7.42Q23.70 7.03 23.10 7.03L23.10 7.03L23.10 7.03Q22.53 7.03 21.99 7.42L21.99 7.42L21.99 7.42Q21.45 7.81 21.01 8.43L21.01 8.43L21.01 13.48L21.85 13.62L21.85 13.90L18.63 13.90ZM32.55 5.99L32.55 5.99Q32.47 5.04 32.27 4.00L32.27 4.00L32.27 4.00Q32.14 3.37 32.14 3.12L32.14 3.12L32.14 3.12Q32.14 2.90 32.28 2.73L32.28 2.73L32.28 2.73Q32.41 2.56 32.66 2.56L32.66 2.56L32.66 2.56Q32.91 2.56 33.05 2.73L33.05 2.73L33.05 2.73Q33.19 2.90 33.19 3.12L33.19 3.12L33.19 3.12Q33.19 3.37 33.07 3.98L33.07 3.98L33.07 3.98Q33.05 4.06 32.95 4.61L32.95 4.61L32.95 4.61Q32.84 5.15 32.79 5.99L32.79 5.99L32.55 5.99ZM37.18 14.04L37.18 14.04Q36.04 14.04 35.27 13.55L35.27 13.55L35.27 13.55Q34.50 13.06 34.50 12.28L34.50 12.28L34.50 12.28Q34.50 11.87 34.71 11.64L34.71 11.64L34.71 11.64Q34.93 11.41 35.29 11.41L35.29 11.41L35.29 11.41Q35.57 11.41 35.77 11.55L35.77 11.55L35.77 11.55Q35.97 11.69 36.05 11.94L36.05 11.94L36.05 11.94Q35.74 12.28 35.74 12.66L35.74 12.66L35.74 12.66Q35.74 13.09 36.13 13.41L36.13 13.41L36.13 13.41Q36.53 13.73 37.18 13.73L37.18 13.73L37.18 13.73Q38.07 13.73 38.63 13.34L38.63 13.34L38.63 13.34Q39.19 12.94 39.19 12.26L39.19 12.26L39.19 12.26Q39.19 11.87 38.95 11.68L38.95 11.68L38.95 11.68Q38.71 11.48 38.02 11.23L38.02 11.23L35.91 10.46L35.91 10.46Q34.66 10.01 34.66 8.79L34.66 8.79L34.66 8.79Q34.66 7.80 35.35 7.16L35.35 7.16L35.35 7.16Q36.04 6.52 37.24 6.52L37.24 6.52L37.24 6.52Q38.23 6.52 38.94 6.98L38.94 6.98L38.94 6.98Q39.65 7.43 39.65 8.27L39.65 8.27L39.65 8.27Q39.65 8.61 39.47 8.81L39.47 8.81L39.47 8.81Q39.28 9.02 38.99 9.02L38.99 9.02L38.99 9.02Q38.70 9.02 38.51 8.86L38.51 8.86L38.51 8.86Q38.32 8.69 38.32 8.41L38.32 8.41L38.32 8.41Q38.50 8.27 38.57 8.11L38.57 8.11L38.57 8.11Q38.64 7.95 38.64 7.73L38.64 7.73L38.64 7.73Q38.64 7.34 38.30 7.08L38.30 7.08L38.30 7.08Q37.95 6.83 37.24 6.83L37.24 6.83L37.24 6.83Q36.62 6.83 36.18 7.02L36.18 7.02L36.18 7.02Q35.74 7.21 35.52 7.52L35.52 7.52L35.52 7.52Q35.29 7.83 35.29 8.15L35.29 8.15L35.29 8.15Q35.29 8.48 35.54 8.68L35.54 8.68L35.54 8.68Q35.78 8.88 36.44 9.11L36.44 9.11L38.40 9.81L38.40 9.81Q39.09 10.07 39.44 10.51L39.44 10.51L39.44 10.51Q39.79 10.96 39.79 11.68L39.79 11.68L39.79 11.68Q39.79 12.70 39.14 13.37L39.14 13.37L39.14 13.37Q38.50 14.04 37.18 14.04L37.18 14.04ZM50.79 13.90L46.68 13.90L46.68 13.61L47.96 13.40L47.96 3.05L45.65 3.05L44.59 5.82L44.18 5.82L44.18 2.70L53.30 2.70L53.30 5.82L52.88 5.82L51.83 3.05L49.50 3.05L49.50 13.40L50.79 13.61L50.79 13.90ZM56.32 14.04L56.32 14.04Q55.43 14.04 54.85 13.57L54.85 13.57L54.85 13.57Q54.28 13.10 54.28 12.18L54.28 12.18L54.28 12.18Q54.28 10.86 55.38 10.31L55.38 10.31L55.38 10.31Q56.49 9.76 57.95 9.76L57.95 9.76L58.88 9.76L58.88 8.68L58.88 8.68Q58.88 7.95 58.72 7.55L58.72 7.55L58.72 7.55Q58.56 7.15 58.23 6.99L58.23 6.99L58.23 6.99Q57.89 6.83 57.32 6.83L57.32 6.83L57.32 6.83Q56.66 6.83 56.34 7.09L56.34 7.09L56.34 7.09Q56.01 7.35 56.01 7.78L56.01 7.78L56.01 7.78Q56.01 8.19 56.41 8.32L56.41 8.32L56.41 8.32Q56.41 8.67 56.14 8.93L56.14 8.93L56.14 8.93Q55.87 9.20 55.51 9.20L55.51 9.20L55.51 9.20Q55.12 9.20 54.88 8.98L54.88 8.98L54.88 8.98Q54.64 8.76 54.64 8.32L54.64 8.32L54.64 8.32Q54.64 7.50 55.45 7.01L55.45 7.01L55.45 7.01Q56.27 6.52 57.48 6.52L57.48 6.52L57.48 6.52Q60.28 6.52 60.28 8.96L60.28 8.96L60.28 12.96L60.28 12.96Q60.28 13.27 60.42 13.43L60.42 13.43L60.42 13.43Q60.55 13.59 60.80 13.59L60.80 13.59L60.80 13.59Q61.04 13.59 61.18 13.43L61.18 13.43L61.18 13.43Q61.32 13.27 61.32 12.99L61.32 12.99L61.61 12.99L61.61 12.99Q61.61 13.48 61.30 13.76L61.30 13.76L61.30 13.76Q60.98 14.04 60.42 14.04L60.42 14.04L60.42 14.04Q59.78 14.04 59.34 13.67L59.34 13.67L59.34 13.67Q58.90 13.30 58.88 12.52L58.88 12.52L58.88 12.52Q58.55 13.23 57.86 13.64L57.86 13.64L57.86 13.64Q57.16 14.04 56.32 14.04L56.32 14.04ZM57.09 13.43L57.09 13.43Q57.47 13.43 57.87 13.20L57.87 13.20L57.87 13.20Q58.27 12.98 58.55 12.55L58.55 12.55L58.55 12.55Q58.83 12.12 58.88 11.52L58.88 11.52L58.88 10.07L57.95 10.07L57.95 10.07Q56.80 10.07 56.23 10.58L56.23 10.58L56.23 10.58Q55.66 11.09 55.66 12.01L55.66 12.01L55.66 12.01Q55.66 12.78 56.03 13.10L56.03 13.10L56.03 13.10Q56.39 13.43 57.09 13.43L57.09 13.43ZM65.67 14.18L65.28 14.18L62.29 7.07L61.38 6.93L61.38 6.65L64.86 6.65L64.86 6.93L63.85 7.11L65.97 12.38L67.86 7.29L66.63 6.94L66.63 6.66L69.13 6.66L69.13 6.94L68.25 7.28L65.67 14.18ZM73.29 14.04L73.29 14.04Q72.25 14.04 71.41 13.57L71.41 13.57L71.41 13.57Q70.57 13.10 70.08 12.25L70.08 12.25L70.08 12.25Q69.59 11.40 69.59 10.28L69.59 10.28L69.59 10.28Q69.59 9.16 70.08 8.31L70.08 8.31L70.08 8.31Q70.56 7.46 71.38 6.99L71.38 6.99L71.38 6.99Q72.20 6.52 73.21 6.52L73.21 6.52L73.21 6.52Q74.09 6.52 74.79 6.92L74.79 6.92L74.79 6.92Q75.49 7.31 75.88 8.00L75.88 8.00L75.88 8.00Q76.27 8.69 76.29 9.59L76.29 9.59L71.13 9.59L71.13 10.98L71.13 10.98Q71.13 12.21 71.69 12.97L71.69 12.97L71.69 12.97Q72.24 13.73 73.29 13.73L73.29 13.73L73.29 13.73Q74.26 13.73 75.00 13.19L75.00 13.19L75.00 13.19Q75.74 12.64 75.91 11.77L75.91 11.77L76.23 11.77L76.23 11.77Q76.03 12.81 75.24 13.43L75.24 13.43L75.24 13.43Q74.44 14.04 73.29 14.04L73.29 14.04ZM71.15 9.24L74.75 9.24L74.75 9.24Q74.75 8.02 74.37 7.43L74.37 7.43L74.37 7.43Q73.99 6.83 73.19 6.83L73.19 6.83L73.19 6.83Q72.25 6.83 71.74 7.49L71.74 7.49L71.74 7.49Q71.22 8.15 71.15 9.24L71.15 9.24ZM77.22 13.90L77.22 13.62L78.20 13.48L78.20 7.07L77.22 6.93L77.22 6.65L79.60 6.65L79.60 7.73L79.60 7.73Q80.49 6.52 81.59 6.52L81.59 6.52L81.59 6.52Q82.12 6.52 82.53 6.80L82.53 6.80L82.53 6.80Q82.94 7.07 82.94 7.57L82.94 7.57L82.94 7.57Q82.94 7.94 82.70 8.18L82.70 8.18L82.70 8.18Q82.46 8.43 82.07 8.43L82.07 8.43L82.07 8.43Q81.62 8.43 81.34 8.08L81.34 8.08L81.34 8.08Q81.49 7.88 81.49 7.66L81.49 7.66L81.49 7.66Q81.49 7.42 81.33 7.27L81.33 7.27L81.33 7.27Q81.17 7.13 80.91 7.13L80.91 7.13L80.91 7.13Q80.61 7.13 80.30 7.40L80.30 7.40L80.30 7.40Q80.00 7.67 79.60 8.25L79.60 8.25L79.60 13.48L80.72 13.62L80.72 13.90L77.22 13.90ZM83.41 13.90L83.41 13.62L84.39 13.48L84.39 7.07L83.41 6.93L83.41 6.65L85.79 6.65L85.79 8.16L85.79 8.16Q86.31 7.41 87.01 6.97L87.01 6.97L87.01 6.97Q87.71 6.52 88.52 6.52L88.52 6.52L88.52 6.52Q89.53 6.52 90.11 7.03L90.11 7.03L90.11 7.03Q90.69 7.53 90.69 8.53L90.69 8.53L90.69 13.48L91.67 13.62L91.67 13.90L88.45 13.90L88.45 13.62L89.29 13.48L89.29 8.55L89.29 8.55Q89.29 7.83 89.00 7.43L89.00 7.43L89.00 7.43Q88.70 7.03 88.09 7.03L88.09 7.03L88.09 7.03Q87.44 7.03 86.85 7.50L86.85 7.50L86.85 7.50Q86.25 7.97 85.79 8.65L85.79 8.65L85.79 13.48L86.63 13.62L86.63 13.90L83.41 13.90ZM102.23 13.90L98.11 13.90L98.11 13.61L99.40 13.40L99.40 3.05L97.09 3.05L96.03 5.82L95.62 5.82L95.62 2.70L104.73 2.70L104.73 5.82L104.31 5.82L103.26 3.05L100.94 3.05L100.94 13.40L102.23 13.61L102.23 13.90ZM105.45 13.90L105.45 13.62L106.43 13.48L106.43 7.07L105.45 6.93L105.45 6.65L107.83 6.65L107.83 7.73L107.83 7.73Q108.71 6.52 109.82 6.52L109.82 6.52L109.82 6.52Q110.35 6.52 110.75 6.80L110.75 6.80L110.75 6.80Q111.16 7.07 111.16 7.57L111.16 7.57L111.16 7.57Q111.16 7.94 110.92 8.18L110.92 8.18L110.92 8.18Q110.68 8.43 110.29 8.43L110.29 8.43L110.29 8.43Q109.84 8.43 109.56 8.08L109.56 8.08L109.56 8.08Q109.72 7.88 109.72 7.66L109.72 7.66L109.72 7.66Q109.72 7.42 109.56 7.27L109.56 7.27L109.56 7.27Q109.40 7.13 109.13 7.13L109.13 7.13L109.13 7.13Q108.84 7.13 108.53 7.40L108.53 7.40L108.53 7.40Q108.22 7.67 107.83 8.25L107.83 8.25L107.83 13.48L108.95 13.62L108.95 13.90L105.45 13.90ZM115.49 14.04L115.49 14.04Q114.48 14.04 113.65 13.57L113.65 13.57L113.65 13.57Q112.83 13.10 112.34 12.24L112.34 12.24L112.34 12.24Q111.86 11.38 111.86 10.28L111.86 10.28L111.86 10.28Q111.86 9.17 112.34 8.32L112.34 8.32L112.34 8.32Q112.83 7.46 113.65 6.99L113.65 6.99L113.65 6.99Q114.48 6.52 115.49 6.52L115.49 6.52L115.49 6.52Q116.49 6.52 117.32 6.99L117.32 6.99L117.32 6.99Q118.15 7.46 118.63 8.32L118.63 8.32L118.63 8.32Q119.11 9.17 119.11 10.28L119.11 10.28L119.11 10.28Q119.11 11.38 118.63 12.24L118.63 12.24L118.63 12.24Q118.15 13.10 117.32 13.57L117.32 13.57L117.32 13.57Q116.49 14.04 115.49 14.04L115.49 14.04ZM115.49 13.73L115.49 13.73Q116.52 13.73 117.05 12.98L117.05 12.98L117.05 12.98Q117.57 12.22 117.57 10.98L117.57 10.98L117.57 9.58L117.57 9.58Q117.57 8.33 117.05 7.58L117.05 7.58L117.05 7.58Q116.52 6.83 115.49 6.83L115.49 6.83L115.49 6.83Q114.45 6.83 113.93 7.58L113.93 7.58L113.93 7.58Q113.40 8.33 113.40 9.58L113.40 9.58L113.40 10.98L113.40 10.98Q113.40 12.22 113.93 12.98L113.93 12.98L113.93 12.98Q114.45 13.73 115.49 13.73L115.49 13.73ZM123.82 14.18L123.42 14.18L120.43 7.07L119.52 6.93L119.52 6.65L123.00 6.65L123.00 6.93L122.00 7.11L124.11 12.38L126.00 7.29L124.77 6.94L124.77 6.66L127.27 6.66L127.27 6.94L126.39 7.28L123.82 14.18ZM131.43 14.04L131.43 14.04Q130.40 14.04 129.56 13.57L129.56 13.57L129.56 13.57Q128.72 13.10 128.23 12.25L128.23 12.25L128.23 12.25Q127.74 11.40 127.74 10.28L127.74 10.28L127.74 10.28Q127.74 9.16 128.22 8.31L128.22 8.31L128.22 8.31Q128.70 7.46 129.52 6.99L129.52 6.99L129.52 6.99Q130.34 6.52 131.35 6.52L131.35 6.52L131.35 6.52Q132.23 6.52 132.93 6.92L132.93 6.92L132.93 6.92Q133.63 7.31 134.02 8.00L134.02 8.00L134.02 8.00Q134.41 8.69 134.43 9.59L134.43 9.59L129.28 9.59L129.28 10.98L129.28 10.98Q129.28 12.21 129.83 12.97L129.83 12.97L129.83 12.97Q130.38 13.73 131.43 13.73L131.43 13.73L131.43 13.73Q132.40 13.73 133.14 13.19L133.14 13.19L133.14 13.19Q133.88 12.64 134.05 11.77L134.05 11.77L134.37 11.77L134.37 11.77Q134.18 12.81 133.38 13.43L133.38 13.43L133.38 13.43Q132.58 14.04 131.43 14.04L131.43 14.04ZM129.29 9.24L132.89 9.24L132.89 9.24Q132.89 8.02 132.51 7.43L132.51 7.43L132.51 7.43Q132.13 6.83 131.33 6.83L131.33 6.83L131.33 6.83Q130.40 6.83 129.88 7.49L129.88 7.49L129.88 7.49Q129.36 8.15 129.29 9.24L129.29 9.24Z"></path></g><!----><!----></svg>